<svg width="174" height="80" viewBox="0 0 174 80" fill="none" xmlns="http://www.w3.org/2000/svg">
<g filter="url(#filter0_n_134_2288)">
<rect width="174" height="80" rx="4" fill="#EFEFEF"/>
<path d="M68 14.5H106C106.828 14.5 107.5 15.1716 107.5 16V31.5H66.5V16C66.5 15.1716 67.1716 14.5 68 14.5Z" fill="#75AFFF"/>
<path d="M68 14.5H106C106.828 14.5 107.5 15.1716 107.5 16V31.5H66.5V16C66.5 15.1716 67.1716 14.5 68 14.5Z" stroke="#2F61A6"/>
<path d="M47 31.5H86.5V48.5H45.5V33C45.5 32.1716 46.1716 31.5 47 31.5Z" fill="#75AFFF"/>
<path d="M47 31.5H86.5V48.5H45.5V33C45.5 32.1716 46.1716 31.5 47 31.5Z" stroke="#2F61A6"/>
<mask id="path-4-inside-1_134_2288" fill="white">
<path d="M87 31H127C128.105 31 129 31.8954 129 33V49H87V31Z"/>
</mask>
<path d="M87 31H127C128.105 31 129 31.8954 129 33V49H87V31Z" fill="#75AFFF"/>
<path d="M87 30H127C128.657 30 130 31.3431 130 33H128C128 32.4477 127.552 32 127 32H87V30ZM130 50H87V48H128L130 50ZM128 48M87 49V31V49M127 30C128.657 30 130 31.3431 130 33V50L128 48V33C128 32.4477 127.552 32 127 32V30Z" fill="#2F61A6" mask="url(#path-4-inside-1_134_2288)"/>
<path d="M26 48.5H65.5V65.5H26C25.1716 65.5 24.5 64.8284 24.5 64V50C24.5 49.1716 25.1716 48.5 26 48.5Z" fill="#75AFFF"/>
<path d="M26 48.5H65.5V65.5H26C25.1716 65.5 24.5 64.8284 24.5 64V50C24.5 49.1716 25.1716 48.5 26 48.5Z" stroke="#2F61A6"/>
<mask id="path-7-inside-2_134_2288" fill="white">
<path d="M66 48H108V66H66V48Z"/>
</mask>
<path d="M66 48H108V66H66V48Z" fill="#75AFFF"/>
<path d="M66 48V49H108V48V47H66V48ZM108 66V65H66V66V67H108V66Z" fill="#2F61A6" mask="url(#path-7-inside-2_134_2288)"/>
<path d="M148 48.5C148.828 48.5 149.5 49.1716 149.5 50V64C149.5 64.8284 148.828 65.5 148 65.5H108.5V48.5H148Z" fill="#75AFFF"/>
<path d="M148 48.5C148.828 48.5 149.5 49.1716 149.5 50V64C149.5 64.8284 148.828 65.5 148 65.5H108.5V48.5H148Z" stroke="#2F61A6"/>
</g>
<defs>
<filter id="filter0_n_134_2288" x="0" y="0" width="174" height="80" filterUnits="userSpaceOnUse" color-interpolation-filters="sRGB">
<feFlood flood-opacity="0" result="BackgroundImageFix"/>
<feBlend mode="normal" in="SourceGraphic" in2="BackgroundImageFix" result="shape"/>
<feTurbulence type="fractalNoise" baseFrequency="0.20000000298023224 0.20000000298023224" stitchTiles="stitch" numOctaves="3" result="noise" seed="6571" />
<feColorMatrix in="noise" type="luminanceToAlpha" result="alphaNoise" />
<feComponentTransfer in="alphaNoise" result="coloredNoise1">
<feFuncA type="discrete" tableValues="0 0 0 0 0 0 0 0 0 0 0 0 0 0 1 1 1 1 1 1 1 1 1 1 1 1 1 1 1 1 1 1 1 1 1 0 0 0 0 0 0 0 0 0 0 0 0 0 0 0 0 0 0 0 0 0 0 0 0 0 0 0 0 0 0 0 0 0 0 0 0 0 0 0 0 0 0 0 0 0 0 0 0 0 0 0 0 0 0 0 0 0 0 0 0 0 0 0 0 0 "/>
</feComponentTransfer>
<feComposite operator="in" in2="shape" in="coloredNoise1" result="noise1Clipped" />
<feFlood flood-color="rgba(0, 0, 0, 0.11)" result="color1Flood" />
<feComposite operator="in" in2="noise1Clipped" in="color1Flood" result="color1" />
<feMerge result="effect1_noise_134_2288">
<feMergeNode in="shape" />
<feMergeNode in="color1" />
</feMerge>
</filter>
</defs>
</svg>
