<svg width="98" height="98" viewBox="0 0 98 98" fill="none" xmlns="http://www.w3.org/2000/svg">
<circle cx="49" cy="49" r="48" fill="white" stroke="#E8E8E8" stroke-width="2"/>
<rect x="24" y="48.0583" width="50" height="1" fill="#E8E8E8"/>
<path d="M49.3409 23.0583L55 49.0584H43L49.3409 23.0583Z" fill="#FF0000"/>
<path d="M49.3409 75.0583L55 49.0583H43L49.3409 75.0583Z" fill="#E6E6E6"/>
<path d="M52.6394 19.608H51.116L47.3894 14.2174H47.3191V19.608H45.5613V11.1236H47.1082L50.8113 16.5143H50.8933V11.1236H52.6394V19.608Z" fill="#333333"/>
<path d="M50.7781 82.0359C50.7429 81.7 50.5964 81.4382 50.3386 81.2507C50.0808 81.0632 49.739 80.9695 49.3132 80.9695C49.0203 80.9695 48.7683 81.0125 48.5574 81.0984C48.3503 81.1804 48.1921 81.2957 48.0828 81.4441C47.9734 81.5925 47.9187 81.7625 47.9187 81.9539C47.9187 82.2273 48.0417 82.446 48.2878 82.6101C48.5339 82.7742 48.864 82.9031 49.2781 82.9968L50.0398 83.1843C50.825 83.3601 51.4441 83.6511 51.8972 84.0574C52.3542 84.4597 52.5828 84.9968 52.5828 85.6687C52.5828 86.1882 52.4519 86.6394 52.1902 87.0222C51.9285 87.4011 51.5515 87.6941 51.0593 87.9011C50.5671 88.1082 49.9812 88.2117 49.3015 88.2117C48.614 88.2117 48.0164 88.1062 47.5085 87.8953C47.0046 87.6843 46.6121 87.3738 46.3308 86.9636C46.0535 86.5496 45.907 86.0437 45.8914 85.446H47.6023C47.6296 85.864 47.7937 86.1843 48.0945 86.407C48.3992 86.6257 48.7937 86.7351 49.2781 86.7351C49.5828 86.7351 49.8503 86.6902 50.0808 86.6003C50.3113 86.5105 50.489 86.3855 50.614 86.2253C50.739 86.0652 50.8015 85.8796 50.8015 85.6687C50.8015 85.3953 50.6824 85.1785 50.4441 85.0183C50.2097 84.8582 49.8445 84.7156 49.3484 84.5906L48.4226 84.3679C46.8835 83.989 46.114 83.2195 46.114 82.0593C46.114 81.5515 46.2507 81.1042 46.5242 80.7175C46.8015 80.3269 47.1843 80.0261 47.6726 79.8152C48.1609 79.6003 48.7117 79.4929 49.325 79.4929C49.9421 79.4929 50.4871 79.6003 50.9597 79.8152C51.4324 80.03 51.7996 80.3308 52.0613 80.7175C52.323 81.1003 52.4578 81.5398 52.4656 82.0359H50.7781Z" fill="#333333"/>
<path d="M79.7458 43.8669H85.4412V45.32H81.5037V47.3825H85.1482V48.8356H81.5037V50.8981H85.4529V52.3513H79.7458V43.8669Z" fill="#333333"/>
<path d="M9.8103 43.8669H11.7322L13.1619 49.7966H13.2322L14.7908 43.8669H16.4431L18.0017 49.8083H18.072L19.5017 43.8669H21.4236L18.9978 52.3513H17.2751L15.658 46.7497H15.5876L13.9587 52.3513H12.2361L9.8103 43.8669Z" fill="#333333"/>
</svg>
