<svg width="17" height="17" viewBox="0 0 17 17" fill="none" xmlns="http://www.w3.org/2000/svg">
<path d="M8.49994 15.611V11.1666M11.1666 13.8335L9.12849 16.0227C8.83219 16.341 8.68404 16.5001 8.49994 16.5001C8.31585 16.5001 8.1677 16.341 7.8714 16.0227L5.83327 13.8335" stroke="#333333" stroke-linecap="round" stroke-linejoin="round"/>
<path d="M15.6112 8.5H11.1667M13.8333 11.1668L16.0226 9.12866C16.3409 8.83236 16.5 8.68421 16.5 8.50011C16.5 8.31602 16.3409 8.16787 16.0226 7.87157L13.8333 5.83344" stroke="#333333" stroke-linecap="round" stroke-linejoin="round"/>
<path d="M8.50002 5.8334L8.50002 1.38893M11.1667 3.16668L9.12858 0.977405C8.83228 0.659135 8.68413 0.5 8.50004 0.5C8.31594 0.5 8.16779 0.659136 7.87149 0.977404L5.83336 3.16668" stroke="#333333" stroke-linecap="round" stroke-linejoin="round"/>
<path d="M5.83331 8.49995L1.38884 8.50005M3.16668 5.83337L0.977405 7.87151C0.659135 8.16781 0.5 8.31596 0.5 8.50005C0.5 8.68415 0.659135 8.8323 0.977404 9.1286L3.16668 11.1667" stroke="#333333" stroke-linecap="round" stroke-linejoin="round"/>
</svg>
