<svg width="18" height="12" viewBox="0 0 18 12" fill="none" xmlns="http://www.w3.org/2000/svg">
<path d="M4.25 1.1084L10.75 1.6084L11.75 1.1084L14.25 2.6084V5.6084L13.75 9.6084L9.75 10.6084H3.25L1.75 9.1084L0.75 5.1084L1.75 2.1084L4.25 1.1084Z" fill="white"/>
<path d="M5.55 0.750092C3.28726 0.750092 2.15589 0.750092 1.45294 1.45303C0.75 2.15597 0.75 3.28733 0.75 5.55006C0.75 7.81279 0.75 8.94415 1.45294 9.64709C1.90839 10.1025 2.54368 10.2629 3.55 10.3194M8.75001 10.3362L9.55001 10.35C11.8128 10.35 12.9441 10.35 13.6471 9.64709C14.35 8.94415 14.35 7.81279 14.35 5.55006C14.35 3.28733 14.35 2.15597 13.6471 1.45303C13.0812 0.887183 12.2378 0.776828 10.75 0.755306" stroke="#5F7591" stroke-width="1.5" stroke-linecap="round"/>
<path d="M8.3999 0.750092L6.0234 4.2994C5.65538 4.84905 5.47136 5.12387 5.58196 5.33697C5.69256 5.55006 6.01921 5.55006 6.6725 5.55006H7.6276C8.28089 5.55006 8.60754 5.55006 8.71814 5.76316C8.82874 5.97625 8.64472 6.25108 8.2767 6.80073L5.9002 10.35" stroke="#5F7591" stroke-width="1.5" stroke-linecap="round"/>
<path d="M14.3501 3.55008L15.1719 3.68704C15.7169 3.77788 15.9894 3.8233 16.1962 3.9554C16.3996 4.08534 16.559 4.2736 16.6538 4.49559C16.7501 4.72126 16.7501 4.99753 16.7501 5.55007C16.7501 6.10261 16.7501 6.37888 16.6538 6.60455C16.559 6.82653 16.3996 7.01479 16.1962 7.14473C15.9894 7.27684 15.7169 7.32226 15.1719 7.41309L14.3501 7.55005" stroke="#5F7591" stroke-width="1.5" stroke-linecap="round"/>
</svg>
