<svg width="18" height="20" viewBox="0 0 18 20" fill="none" xmlns="http://www.w3.org/2000/svg">
<path d="M1.60844 4.12566L2.1447 2.88048C2.58989 1.8468 2.81248 1.32996 3.2489 1.04001C3.68532 0.750061 4.24066 0.750061 5.35135 0.750061H12.1484C13.2591 0.750061 13.8145 0.750061 14.2509 1.04001C14.6873 1.32996 14.9099 1.8468 15.3551 2.88048L15.8913 4.12566C16.6173 5.81129 16.9803 6.6541 16.5917 7.25764C16.2032 7.86117 15.2976 7.86117 13.4864 7.86117H4.01342C2.20222 7.86117 1.29662 7.86117 0.908058 7.25764C0.519493 6.6541 0.882474 5.81129 1.60844 4.12566Z" fill="white" stroke="#5F7591" stroke-width="1.5" stroke-linecap="round" stroke-linejoin="round"/>
<path d="M2.08323 7.86115V12.3056C2.08323 13.9817 2.08323 14.8197 2.60392 15.3404C3.02307 15.7596 3.64786 15.8413 4.74989 15.8573M15.4166 7.86115V12.3056C15.4166 13.9817 15.4166 14.8197 14.8959 15.3404C14.4767 15.7596 13.8519 15.8413 12.7499 15.8573" stroke="#5F7591" stroke-width="1.5" stroke-linecap="round" stroke-linejoin="round"/>
<path d="M9.63878 11.4167L7.33281 14.1431C7.05133 14.5081 6.91058 14.6906 6.99778 14.8315C7.08497 14.9723 7.3387 14.9723 7.84616 14.9723H9.65363C10.1611 14.9723 10.4148 14.9723 10.502 15.1131C10.5892 15.254 10.4485 15.4365 10.167 15.8015L7.84616 18.5279" stroke="#5F7591" stroke-width="1.5" stroke-linecap="round" stroke-linejoin="round"/>
<path d="M6.97211 0.750061L6.08323 7.86117M10.5277 0.750061L11.4166 7.86117" stroke="#5F7591" stroke-width="1.5" stroke-linecap="round" stroke-linejoin="round"/>
<path d="M1.63878 4.3056H15.861" stroke="#5F7591" stroke-width="1.5" stroke-linecap="round" stroke-linejoin="round"/>
</svg>
