<svg width="16" height="18" viewBox="0 0 16 18" fill="none" xmlns="http://www.w3.org/2000/svg">
<path d="M9.12677 16.0286C8.78463 16.3489 8.32733 16.528 7.85141 16.528C7.37549 16.528 6.91819 16.3489 6.57605 16.0286C3.44296 13.0773 -0.755774 9.78048 1.29182 4.99402C2.39894 2.40602 5.05651 0.75 7.85141 0.75C10.6463 0.75 13.3039 2.40603 14.411 4.99402C16.456 9.77444 12.2676 13.0875 9.12677 16.0286Z" fill="white" stroke="#5F7591" stroke-width="1.5"/>
<path d="M10.6116 7.85013C10.6116 9.37507 9.37541 10.6113 7.85047 10.6113C6.32553 10.6113 5.08932 9.37507 5.08932 7.85013C5.08932 6.32518 6.32553 5.08897 7.85047 5.08897C9.37541 5.08897 10.6116 6.32518 10.6116 7.85013Z" stroke="#5F7591" stroke-width="1.5"/>
</svg>
