<svg width="15" height="18" viewBox="0 0 15 18" fill="none" xmlns="http://www.w3.org/2000/svg">
<path d="M1.6499 3.30835L1.1499 9.30835L2.1499 10.8083L12.1499 10.3083L13.1499 8.30835L12.6499 5.30835L11.0999 2.30835L8.1499 1.30835H5.1499L1.6499 3.30835Z" fill="white"/>
<path d="M1.66429 10.35C1.08388 9.39653 0.75 8.27941 0.75 7.08509C0.75 3.58632 3.61538 0.75 7.15 0.75C10.6846 0.75 13.55 3.58632 13.55 7.08509C13.55 8.27941 13.2161 9.39653 12.6357 10.35" stroke="#5F7591" stroke-width="1.5" stroke-linecap="round"/>
<path d="M8.75 7.15001C8.26003 7.66457 7.71888 7.95001 7.15 7.95001C6.58112 7.95001 6.03997 7.66457 5.55 7.15001" stroke="#5F7591" stroke-width="1.5" stroke-linecap="round"/>
<path d="M3.4564 12.8286C3.3829 12.6073 3.34615 12.4967 3.35043 12.407C3.35949 12.2174 3.47901 12.051 3.65535 11.9824C3.73873 11.95 3.85494 11.95 4.08735 11.95H10.2128C10.4453 11.95 10.5615 11.95 10.6448 11.9824C10.8212 12.051 10.9407 12.2174 10.9498 12.407C10.954 12.4967 10.9173 12.6073 10.8438 12.8286C10.708 13.2376 10.6401 13.4421 10.5353 13.6076C10.3158 13.9545 9.97183 14.2034 9.57455 14.3026C9.3849 14.35 9.17013 14.35 8.74061 14.35H5.55959C5.13006 14.35 4.9153 14.35 4.72565 14.3026C4.32836 14.2034 3.98435 13.9545 3.7649 13.6076C3.66014 13.4421 3.59223 13.2376 3.4564 12.8286Z" stroke="#5F7591" stroke-width="1.5"/>
<path d="M9.55 14.35L9.44654 14.8673C9.33342 15.4329 9.27685 15.7157 9.1501 15.9392C8.95413 16.2848 8.6366 16.5451 8.25929 16.6695C8.01526 16.75 7.72684 16.75 7.15 16.75C6.57316 16.75 6.28474 16.75 6.04071 16.6695C5.6634 16.5451 5.34587 16.2848 5.1499 15.9392C5.02315 15.7157 4.96659 15.4329 4.85346 14.8673L4.75 14.35" stroke="#5F7591" stroke-width="1.5"/>
<path d="M7.1499 11.55V7.95001" stroke="#5F7591" stroke-width="1.5" stroke-linecap="round" stroke-linejoin="round"/>
</svg>
