<svg width="16" height="18" viewBox="0 0 16 18" fill="none" xmlns="http://www.w3.org/2000/svg">
<path d="M5.13899 1.64102L3.81302 2.25393C1.77101 3.19781 0.75 3.66975 0.75 4.44444C0.75 5.21913 1.77101 5.69108 3.81302 6.63496L5.13899 7.24787C6.42407 7.84188 7.06662 8.13889 7.75 8.13889C8.43338 8.13889 9.07593 7.84188 10.361 7.24787L11.687 6.63496C13.729 5.69108 14.75 5.21913 14.75 4.44444C14.75 3.66975 13.729 3.19781 11.687 2.25392L10.361 1.64102C9.07592 1.04701 8.43338 0.75 7.75 0.75C7.06662 0.75 6.42408 1.04701 5.13899 1.64102Z" fill="white" stroke="#5F7591" stroke-width="1.5" stroke-linecap="round" stroke-linejoin="round"/>
<path d="M14.5851 7.82562C14.695 7.98021 14.75 8.14133 14.75 8.31851C14.75 9.08217 13.729 9.5474 11.687 10.4778L10.361 11.082C9.07593 11.6676 8.43338 11.9604 7.75 11.9604C7.06662 11.9604 6.42407 11.6676 5.13899 11.082L3.81302 10.4778C1.77101 9.5474 0.75 9.08217 0.75 8.31851C0.75 8.14133 0.804963 7.98021 0.914889 7.82562" stroke="#5F7591" stroke-width="1.5" stroke-linecap="round" stroke-linejoin="round"/>
<path d="M14.2652 11.8459C14.5884 12.1033 14.75 12.3599 14.75 12.6637C14.75 13.4274 13.729 13.8926 11.687 14.8231L10.361 15.4272C9.07593 16.0128 8.43338 16.3056 7.75 16.3056C7.06662 16.3056 6.42407 16.0128 5.13899 15.4272L3.81302 14.8231C1.77101 13.8926 0.75 13.4274 0.75 12.6637C0.75 12.3599 0.911606 12.1033 1.23482 11.8459" stroke="#5F7591" stroke-width="1.5" stroke-linecap="round" stroke-linejoin="round"/>
</svg>
