<svg width="18" height="18" viewBox="0 0 18 18" fill="none" xmlns="http://www.w3.org/2000/svg">
<path d="M1.40074 11.7477L7.32263 2.28543C7.96326 1.26181 8.28357 0.75 8.75004 0.75C9.21652 0.75 9.53683 1.26181 10.1775 2.28543L16.0993 11.7477C16.5555 12.4767 16.8014 12.8695 16.741 13.2191C16.7359 13.2486 16.7287 13.2777 16.7192 13.3068C16.597 13.6802 16.1637 13.8533 15.2971 14.1994L9.37519 16.565C9.06648 16.6883 8.91213 16.75 8.75004 16.75C8.58796 16.75 8.4336 16.6883 8.12489 16.565L2.203 14.1994C1.33641 13.8533 0.903111 13.6802 0.780921 13.3068C0.771419 13.2777 0.764151 13.2486 0.759061 13.2191C0.698696 12.8695 0.944538 12.4767 1.40074 11.7477Z" fill="white"/>
<path d="M11.0454 10.0907L16.741 13.2191M16.741 13.2191L16.7456 13.2216M16.741 13.2191C16.8014 12.8695 16.5555 12.4767 16.0993 11.7477L10.1775 2.28543C9.53683 1.26181 9.21652 0.75 8.75004 0.75C8.28357 0.75 7.96326 1.26181 7.32263 2.28543L1.40074 11.7477C0.944538 12.4767 0.698696 12.8695 0.759061 13.2191M16.741 13.2191C16.7359 13.2486 16.7287 13.2777 16.7192 13.3068C16.597 13.6802 16.1637 13.8533 15.2971 14.1994L9.37519 16.565C9.06648 16.6883 8.91213 16.75 8.75004 16.75C8.58796 16.75 8.4336 16.6883 8.12489 16.565L2.203 14.1994C1.33641 13.8533 0.903111 13.6802 0.780921 13.3068C0.771419 13.2777 0.764151 13.2486 0.759061 13.2191M0.75451 13.2216L0.759061 13.2191M0.759061 13.2191L6.45467 10.0907" stroke="#5F7591" stroke-width="1.5" stroke-linecap="round" stroke-linejoin="round"/>
<path d="M8.75004 0.75V16.75" stroke="#5F7591" stroke-width="1.5" stroke-linecap="round" stroke-linejoin="round"/>
</svg>
