<svg width="20" height="20" viewBox="0 0 20 20" fill="none" xmlns="http://www.w3.org/2000/svg">
<path d="M0.750145 7.95014C1.45186 4.51583 4.05241 1.76653 7.41571 0.830935C7.69802 0.752402 7.83918 0.713135 7.91522 0.797267C7.99126 0.881398 7.93524 1.02052 7.82322 1.29875L7.05014 3.00014M11.5501 0.750145C14.9845 1.45186 17.7338 4.05241 18.6694 7.41571C18.7479 7.69802 18.7872 7.83918 18.703 7.91522C18.6189 7.99126 18.4798 7.93524 18.2015 7.82322L16.5001 7.05015M18.7501 11.5501C18.0484 14.9845 15.4479 17.7338 12.0846 18.6694C11.8023 18.7479 11.6611 18.7872 11.5851 18.703C11.509 18.6189 11.565 18.4798 11.6771 18.2015L12.4501 16.5001M7.95014 18.7501C4.51583 18.0484 1.76653 15.4479 0.830935 12.0846C0.752402 11.8023 0.713135 11.6611 0.797267 11.5851C0.881398 11.509 1.02052 11.565 1.29875 11.6771L3.00014 12.4501" stroke="white" stroke-width="1.5" stroke-linecap="round"/>
<path d="M12.4501 9.75015C12.4501 11.2413 11.2413 12.4501 9.75015 12.4501M12.4501 9.75015C12.4501 8.25898 11.2413 7.05015 9.75015 7.05015M12.4501 9.75015H13.8001M9.75015 12.4501C8.25898 12.4501 7.05015 11.2413 7.05015 9.75015M9.75015 12.4501V13.8001M7.05015 9.75015C7.05015 8.25898 8.25898 7.05015 9.75015 7.05015M7.05015 9.75015L5.70015 9.75015M9.75015 7.05015V5.70015M11.6593 7.84097L12.6139 6.88637M7.84096 11.6593L6.88637 12.6139M11.6593 11.6593L12.6139 12.6139M7.84096 7.84097L6.88637 6.88637" stroke="white" stroke-width="1.5" stroke-linecap="round" stroke-linejoin="round"/>
</svg>
