<svg width="18" height="18" viewBox="0 0 18 18" fill="none" xmlns="http://www.w3.org/2000/svg">
<path d="M13.55 6.63573V7.55002M13.55 6.63573C12.7403 6.63573 12.0268 6.23167 11.6084 5.61815M15.4917 3.08202C15.7391 3.44485 15.8833 3.88093 15.8833 4.35002C15.8833 4.81916 15.739 5.25529 15.4916 5.61815C15.0732 6.23167 14.3597 6.63573 13.55 6.63573M13.55 2.0643C14.3598 2.0643 15.0733 2.46842 15.4917 3.08202M13.55 2.0643C12.7402 2.0643 12.0267 2.46842 11.6083 3.08202M13.55 2.0643V1.15002M16.35 2.52145L15.4917 3.08202M10.7503 6.17859L11.6084 5.61815M10.75 2.52145L11.6083 3.08202M16.3497 6.17859L15.4916 5.61815M11.6083 3.08202C11.3609 3.44485 11.2167 3.88093 11.2167 4.35002C11.2167 4.81916 11.361 5.25529 11.6084 5.61815" stroke="white" stroke-width="1.5" stroke-linecap="round"/>
<path d="M0.75 3.95C0.75 2.82989 0.75 2.26984 0.967987 1.84202C1.15973 1.46569 1.46569 1.15973 1.84202 0.967987C2.26984 0.75 2.82989 0.75 3.95 0.75C5.0701 0.75 5.63016 0.75 6.05798 0.967987C6.4343 1.15973 6.74027 1.46569 6.93201 1.84202C7.15 2.26984 7.15 2.82989 7.15 3.95C7.15 5.0701 7.15 5.63016 6.93201 6.05798C6.74027 6.4343 6.4343 6.74027 6.05798 6.93201C5.63016 7.15 5.0701 7.15 3.95 7.15C2.82989 7.15 2.26984 7.15 1.84202 6.93201C1.46569 6.74027 1.15973 6.4343 0.967987 6.05798C0.75 5.63016 0.75 5.0701 0.75 3.95Z" stroke="white" stroke-width="1.5"/>
<path d="M0.75 13.55C0.75 12.4299 0.75 11.8698 0.967987 11.442C1.15973 11.0657 1.46569 10.7597 1.84202 10.568C2.26984 10.35 2.82989 10.35 3.95 10.35C5.0701 10.35 5.63016 10.35 6.05798 10.568C6.4343 10.7597 6.74027 11.0657 6.93201 11.442C7.15 11.8698 7.15 12.4299 7.15 13.55C7.15 14.6701 7.15 15.2301 6.93201 15.658C6.74027 16.0343 6.4343 16.3402 6.05798 16.532C5.63016 16.75 5.0701 16.75 3.95 16.75C2.82989 16.75 2.26984 16.75 1.84202 16.532C1.46569 16.3402 1.15973 16.0343 0.967987 15.658C0.75 15.2301 0.75 14.6701 0.75 13.55Z" stroke="white" stroke-width="1.5"/>
<path d="M10.35 13.55C10.35 12.4299 10.35 11.8698 10.568 11.442C10.7597 11.0657 11.0657 10.7597 11.442 10.568C11.8698 10.35 12.4299 10.35 13.55 10.35C14.6701 10.35 15.2301 10.35 15.658 10.568C16.0343 10.7597 16.3402 11.0657 16.532 11.442C16.75 11.8698 16.75 12.4299 16.75 13.55C16.75 14.6701 16.75 15.2301 16.532 15.658C16.3402 16.0343 16.0343 16.3402 15.658 16.532C15.2301 16.75 14.6701 16.75 13.55 16.75C12.4299 16.75 11.8698 16.75 11.442 16.532C11.0657 16.3402 10.7597 16.0343 10.568 15.658C10.35 15.2301 10.35 14.6701 10.35 13.55Z" stroke="white" stroke-width="1.5"/>
</svg>
