<svg width="16" height="16" viewBox="0 0 16 16" fill="none" xmlns="http://www.w3.org/2000/svg">
<rect x="0.5" y="0.5" width="15" height="15" rx="7.5" fill="white"/>
<rect x="0.5" y="0.5" width="15" height="15" rx="7.5" stroke="#3366AA"/>
<path d="M8.74427 9.64648H7.24427L7.09193 3.70508H8.89662L8.74427 9.64648ZM8.00599 12.2949C7.8263 12.2949 7.66029 12.25 7.50795 12.1602C7.3556 12.0703 7.23451 11.9512 7.14466 11.8027C7.05873 11.6504 7.01771 11.4863 7.02162 11.3105C7.01771 11.1348 7.05873 10.9727 7.14466 10.8242C7.23451 10.6758 7.3556 10.5586 7.50795 10.4727C7.66029 10.3828 7.8263 10.3379 8.00599 10.3379C8.17396 10.3379 8.33216 10.3828 8.4806 10.4727C8.63295 10.5586 8.75404 10.6758 8.84388 10.8242C8.93373 10.9727 8.97865 11.1348 8.97865 11.3105C8.97865 11.4863 8.93373 11.6504 8.84388 11.8027C8.75404 11.9512 8.63295 12.0703 8.4806 12.1602C8.33216 12.25 8.17396 12.2949 8.00599 12.2949Z" fill="#3366AA"/>
</svg>
