<svg width="76" height="48" viewBox="0 0 76 48" fill="none" xmlns="http://www.w3.org/2000/svg">
<g clip-path="url(#clip0_1_756)">
<path d="M2.22705 1.19904H0.0864258V0.663879H2.22705V1.19904ZM5.43799 1.19904H3.29736V0.663879H5.43799V1.19904ZM8.6499 1.19904H6.5083V0.663879H8.6499V1.19904ZM11.8618 1.19904H9.72021V0.663879H11.8618V1.19904ZM15.0728 1.19904H12.9312V0.663879H15.0728V1.19904ZM18.2837 1.19904H16.1431V0.663879H18.2837V1.19904ZM21.4956 1.19904H19.355V0.663879H21.4956V1.19904ZM24.7065 1.19904H22.5659V0.663879H24.7065V1.19904ZM27.9185 1.19904H25.7769V0.663879H27.9185V1.19904ZM31.1294 1.19904H28.9888V0.663879H31.1294V1.19904ZM34.3413 1.19904H32.1997V0.663879H34.3413V1.19904ZM37.5522 1.19904H35.4116V0.663879H37.5522V1.19904ZM40.7632 1.19904H38.6226V0.663879H40.7632V1.19904ZM43.9751 1.19904H41.8345V0.663879H43.9751V1.19904ZM47.187 1.19904H45.0454V0.663879H47.187V1.19904ZM50.3979 1.19904H48.2573V0.663879H50.3979V1.19904ZM53.6089 1.19904H51.4683V0.663879H53.6089V1.19904ZM56.8208 1.19904H54.6802V0.663879H56.8208V1.19904ZM60.0317 1.19904H57.8911V0.663879H60.0317V1.19904ZM63.2437 1.19904H61.1021V0.663879H63.2437V1.19904Z" fill="#E60000"/>
<path d="M9.33881 2.78973H8.10753H7.57983L8.45932 1.73434L9.33881 2.78973Z" fill="#E60000"/>
<path d="M9.33881 8.93854H8.10753H7.57983L8.45932 9.99393L9.33881 8.93854Z" fill="#E60000"/>
<rect x="8.28345" y="2.78967" width="0.351795" height="6.14982" fill="#E60000"/>
<mask id="path-5-inside-1_1_756" fill="white">
<path d="M14.8623 10.8659H67.9833V47.8044H14.8623V10.8659Z"/>
</mask>
<path d="M14.8623 10.8659H67.9833V47.8044H14.8623V10.8659Z" fill="white"/>
<path d="M67.9833 47.8044V48.3396H68.5186V47.8044H67.9833ZM14.8623 47.8044H14.3271V48.3396H14.8623V47.8044ZM67.9833 10.8659H67.4481V47.8044H67.9833H68.5186V10.8659H67.9833ZM67.9833 47.8044V47.2692H14.8623V47.8044V48.3396H67.9833V47.8044ZM14.8623 47.8044H15.3975V10.8659H14.8623H14.3271V47.8044H14.8623Z" fill="black" mask="url(#path-5-inside-1_1_756)"/>
<path d="M41.599 0.663879L7.82666 10.69L8.35435 11.7454H9.23384L10.1133 13.3285L41.599 4.35773L73.0846 13.3285L73.9641 11.7454H74.8436L75.1954 10.69L41.599 0.663879Z" fill="#001C77"/>
<path d="M8.70605 11.0418L41.5989 1.36743L74.1399 11.0418" stroke="#78A0BF" stroke-width="1.07046"/>
<rect x="23.657" y="26.6967" width="11.2574" height="18.2933" fill="#001C77"/>
<rect x="24.2766" y="27.3161" width="10.0186" height="17.0545" fill="#001C77" stroke="white" stroke-width="0.535232"/>
<rect x="33.156" y="35.1398" width="0.351795" height="2.46257" fill="white"/>
<rect x="33.156" y="35.1398" width="0.351795" height="2.46257" fill="white"/>
<rect x="33.156" y="34.0844" width="0.351795" height="0.70359" fill="white"/>
<rect x="33.156" y="34.0844" width="0.351795" height="0.70359" fill="white"/>
<rect x="33.156" y="37.9541" width="0.351795" height="0.70359" fill="white"/>
<rect x="33.156" y="37.9541" width="0.351795" height="0.70359" fill="white"/>
<path d="M37.8132 44.9059V47.5367H20.7585V44.9059H37.8132Z" fill="#D9D9D9" stroke="#001C77" stroke-width="0.535232"/>
<rect x="40.5432" y="26.6967" width="17.238" height="11.2574" fill="#001D77"/>
<rect x="40.5432" y="26.6967" width="17.238" height="11.2574" fill="#001D77"/>
<rect x="41.5142" y="27.6679" width="15.2955" height="9.31503" fill="#001D77"/>
<rect x="41.5142" y="27.6679" width="15.2955" height="9.31503" fill="#BED2E5"/>
<rect x="41.5142" y="27.6679" width="15.2955" height="9.31503" stroke="white" stroke-width="0.535232"/>
<path d="M47.9304 36.8988L55.3181 27.7521H56.7253V36.8988H47.9304Z" fill="white" fill-opacity="0.41"/>
<mask id="path-18-outside-2_1_756" maskUnits="userSpaceOnUse" x="47.9861" y="27.4003" width="2" height="10" fill="black">
<rect fill="white" x="47.9861" y="27.4003" width="2" height="10"/>
<path d="M48.9861 27.4003H49.3379V37.2506H48.9861V27.4003Z"/>
</mask>
<path d="M48.9861 27.4003H49.3379V37.2506H48.9861V27.4003Z" fill="#94AEC7"/>
<path d="M49.3379 27.4003H48.8026V37.2506H49.3379H49.8731V27.4003H49.3379ZM48.9861 37.2506H49.5213V27.4003H48.9861H48.4509V37.2506H48.9861Z" fill="#001D77" mask="url(#path-18-outside-2_1_756)"/>
<rect x="35.6179" y="12.6248" width="11.961" height="5.98051" fill="#001D77"/>
<rect x="35.6179" y="12.6248" width="11.961" height="5.98051" fill="#001D77"/>
<rect x="36.5887" y="13.596" width="10.0186" height="4.0381" fill="#001D77"/>
<rect x="36.5887" y="13.596" width="10.0186" height="4.0381" fill="#BED2E5"/>
<rect x="36.5887" y="13.596" width="10.0186" height="4.0381" stroke="white" stroke-width="0.535232"/>
<path d="M37.7285 17.55L45.1162 13.6802H46.5234V17.55H37.7285Z" fill="white" fill-opacity="0.41"/>
</g>
<defs>
<clipPath id="clip0_1_756">
<rect width="76" height="48" fill="white"/>
</clipPath>
</defs>
</svg>
