<svg width="75" height="48" viewBox="0 0 75 48" fill="none" xmlns="http://www.w3.org/2000/svg">
<g clip-path="url(#clip0_1_809)">
<path d="M2.14062 0.535156H0V0H2.14062V0.535156ZM5.35254 0.535156H3.21094V0H5.35254V0.535156ZM8.56348 0.535156H6.42285V0H8.56348V0.535156ZM11.7754 0.535156H9.63379V0H11.7754V0.535156ZM14.9863 0.535156H12.8457V0H14.9863V0.535156ZM18.1973 0.535156H16.0566V0H18.1973V0.535156ZM21.4092 0.535156H19.2686V0H21.4092V0.535156ZM24.6211 0.535156H22.4795V0H24.6211V0.535156ZM27.832 0.535156H25.6914V0H27.832V0.535156ZM31.0439 0.535156H28.9023V0H31.0439V0.535156ZM34.2549 0.535156H32.1143V0H34.2549V0.535156ZM37.4658 0.535156H35.3252V0H37.4658V0.535156ZM40.6777 0.535156H38.5361V0H40.6777V0.535156ZM43.8896 0.535156H41.748V0H43.8896V0.535156ZM47.1006 0.535156H44.96V0H47.1006V0.535156ZM50.3115 0.535156H48.1709V0H50.3115V0.535156ZM53.5234 0.535156H51.3828V0H53.5234V0.535156ZM56.7344 0.535156H54.5938V0H56.7344V0.535156ZM59.9463 0.535156H57.8047V0H59.9463V0.535156ZM63.1572 0.535156H61.0166V0H63.1572V0.535156Z" fill="#E60000"/>
<path d="M9.42068 2.16459H8.16695H7.62964L8.52516 1.08997L9.42068 2.16459Z" fill="#E60000"/>
<path d="M9.42068 13.7986H8.16695H7.62964L8.52516 14.8733L9.42068 13.7986Z" fill="#E60000"/>
<rect x="8.34619" y="2.16464" width="0.358209" height="11.6355" fill="#E60000"/>
<mask id="path-5-inside-1_1_809" fill="white">
<path d="M15.0449 15.0448H69.1344V48H15.0449V15.0448Z"/>
</mask>
<path d="M15.0449 15.0448H69.1344V48H15.0449V15.0448Z" fill="white"/>
<path d="M69.1344 48V48.5352H69.6697V48H69.1344ZM15.0449 48H14.5097V48.5352H15.0449V48ZM69.1344 15.0448H68.5992V48H69.1344H69.6697V15.0448H69.1344ZM69.1344 48V47.4648H15.0449V48V48.5352H69.1344V48ZM15.0449 48H15.5802V15.0448H15.0449H14.5097V48H15.0449Z" fill="black" mask="url(#path-5-inside-1_1_809)"/>
<path d="M42.2684 0L7.88037 15.5821L8.41768 16.6567H9.31321L10.2087 18.2686L42.2684 3.76119L74.3281 18.2686L75.2236 16.6567H76.1191L76.4774 15.5821L42.2684 0Z" fill="#001C77"/>
<path d="M8.95459 15.9404L42.268 0.716492L75.5814 15.9404" stroke="#78A0BF" stroke-width="1.07046"/>
<rect x="23.9995" y="26.5074" width="11.4627" height="18.6269" fill="#001C77"/>
<rect x="24.6253" y="27.1332" width="10.211" height="17.3752" fill="#001C77" stroke="white" stroke-width="0.535232"/>
<rect x="33.6716" y="35.1045" width="0.358209" height="2.50746" fill="white"/>
<rect x="33.6716" y="35.1045" width="0.358209" height="2.50746" fill="white"/>
<rect x="33.6716" y="34.0297" width="0.358209" height="0.716417" fill="white"/>
<rect x="33.6716" y="34.0297" width="0.358209" height="0.716417" fill="white"/>
<rect x="33.6716" y="37.9701" width="0.358209" height="0.716417" fill="white"/>
<rect x="33.6716" y="37.9701" width="0.358209" height="0.716417" fill="white"/>
<path d="M38.4182 45.0436V47.7321H21.0432V45.0436H38.4182Z" fill="#D9D9D9" stroke="#001C77" stroke-width="0.535232"/>
<rect x="41.1946" y="26.5074" width="17.5522" height="11.4627" fill="#001D77"/>
<rect x="41.1946" y="26.5074" width="17.5522" height="11.4627" fill="#001D77"/>
<rect x="42.178" y="27.4915" width="15.5842" height="9.49461" fill="#001D77"/>
<rect x="42.178" y="27.4915" width="15.5842" height="9.49461" fill="#BED2E5"/>
<rect x="42.178" y="27.4915" width="15.5842" height="9.49461" stroke="white" stroke-width="0.535232"/>
<path d="M48.7168 36.8955L56.2392 27.5821H57.672V36.8955H48.7168Z" fill="white" fill-opacity="0.41"/>
<mask id="path-18-outside-2_1_809" maskUnits="userSpaceOnUse" x="48.791" y="27.2238" width="2" height="11" fill="black">
<rect fill="white" x="48.791" y="27.2238" width="2" height="11"/>
<path d="M49.791 27.2238H50.1492V37.2537H49.791V27.2238Z"/>
</mask>
<path d="M49.791 27.2238H50.1492V37.2537H49.791V27.2238Z" fill="#94AEC7"/>
<path d="M50.1492 27.2238H49.614V37.2537H50.1492H50.6845V27.2238H50.1492ZM49.791 37.2537H50.3262V27.2238H49.791H49.2558V37.2537H49.791Z" fill="#001D77" mask="url(#path-18-outside-2_1_809)"/>
<rect x="36.1792" y="12.1791" width="12.1791" height="6.08955" fill="#001D77"/>
<rect x="36.1792" y="12.1791" width="12.1791" height="6.08955" fill="#001D77"/>
<rect x="37.1631" y="13.1631" width="10.211" height="4.12148" fill="#001D77"/>
<rect x="37.1631" y="13.1631" width="10.211" height="4.12148" fill="#BED2E5"/>
<rect x="37.1631" y="13.1631" width="10.211" height="4.12148" stroke="white" stroke-width="0.535232"/>
<path d="M38.3281 17.1939L45.8505 13.2536H47.2833V17.1939H38.3281Z" fill="white" fill-opacity="0.41"/>
</g>
<defs>
<clipPath id="clip0_1_809">
<rect width="75" height="48" fill="white"/>
</clipPath>
</defs>
</svg>
