<svg width="77" height="48" viewBox="0 0 77 48" fill="none" xmlns="http://www.w3.org/2000/svg">
<g clip-path="url(#clip0_1_862)">
<path d="M3.1394 1.01062H0.998779V0.475464H3.1394V1.01062ZM6.35132 1.01062H4.20972V0.475464H6.35132V1.01062ZM9.56226 1.01062H7.42065V0.475464H9.56226V1.01062ZM12.7742 1.01062H10.6326V0.475464H12.7742V1.01062ZM15.9851 1.01062H13.8445V0.475464H15.9851V1.01062ZM19.196 1.01062H17.0554V0.475464H19.196V1.01062ZM22.408 1.01062H20.2673V0.475464H22.408V1.01062ZM25.6199 1.01062H23.4783V0.475464H25.6199V1.01062ZM28.8308 1.01062H26.6892V0.475464H28.8308V1.01062ZM32.0417 1.01062H29.9011V0.475464H32.0417V1.01062ZM35.2537 1.01062H33.113V0.475464H35.2537V1.01062ZM38.4646 1.01062H36.324V0.475464H38.4646V1.01062ZM41.6765 1.01062H39.5349V0.475464H41.6765V1.01062ZM44.8875 1.01062H42.7468V0.475464H44.8875V1.01062ZM48.0994 1.01062H45.9578V0.475464H48.0994V1.01062ZM51.3103 1.01062H49.1697V0.475464H51.3103V1.01062ZM54.5212 1.01062H52.3806V0.475464H54.5212V1.01062ZM57.7332 1.01062H55.5925V0.475464H57.7332V1.01062ZM60.9451 1.01062H58.8035V0.475464H60.9451V1.01062ZM64.156 1.01062H62.0154V0.475464H64.156V1.01062Z" fill="#E60000"/>
<path d="M10.2514 2.60132H9.02012H8.49243L9.37192 1.54593L10.2514 2.60132Z" fill="#E60000"/>
<path d="M10.2514 18.9523H9.02012H8.49243L9.37192 20.0077L10.2514 18.9523Z" fill="#E60000"/>
<rect x="9.19604" y="2.60135" width="0.351794" height="16.3514" fill="#E60000"/>
<mask id="path-5-inside-1_1_862" fill="white">
<path d="M15.7749 20.176H68.8959V47.6161H15.7749V20.176Z"/>
</mask>
<path d="M15.7749 20.176H68.8959V47.6161H15.7749V20.176Z" fill="white"/>
<path d="M68.8959 47.6161V48.1513H69.4311V47.6161H68.8959ZM15.7749 47.6161H15.2397V48.1513H15.7749V47.6161ZM68.8959 20.176H68.3606V47.6161H68.8959H69.4311V20.176H68.8959ZM68.8959 47.6161V47.0808H15.7749V47.6161V48.1513H68.8959V47.6161ZM15.7749 47.6161H16.3101V20.176H15.7749H15.2397V47.6161H15.7749Z" fill="black" mask="url(#path-5-inside-1_1_862)"/>
<path d="M42.5115 0.475464L8.73926 21.0555L9.26695 22.1109H10.1464L11.0259 23.694L42.5115 4.16932L73.9971 23.694L74.8766 22.1109H75.7561L76.1079 21.0555L42.5115 0.475464Z" fill="#001C77"/>
<path d="M9.61865 21.2314L42.5114 1.17908L75.2283 21.2314" stroke="#78A0BF" stroke-width="1.07046"/>
<rect x="24.5696" y="26.5084" width="11.2574" height="18.2934" fill="#001C77"/>
<rect x="25.1897" y="27.1277" width="10.0186" height="17.0545" fill="#001C77" stroke="white" stroke-width="0.535232"/>
<rect x="34.0686" y="34.9514" width="0.351794" height="2.46257" fill="white"/>
<rect x="34.0686" y="34.9514" width="0.351794" height="2.46257" fill="white"/>
<rect x="34.0686" y="33.896" width="0.351794" height="0.703591" fill="white"/>
<rect x="34.0686" y="33.896" width="0.351794" height="0.703591" fill="white"/>
<rect x="34.0686" y="37.7658" width="0.351794" height="0.703591" fill="white"/>
<rect x="34.0686" y="37.7658" width="0.351794" height="0.703591" fill="white"/>
<path d="M38.7258 44.7175V47.3483H21.6711V44.7175H38.7258Z" fill="#D9D9D9" stroke="#001C77" stroke-width="0.535232"/>
<rect x="41.4558" y="26.5084" width="17.2379" height="11.2575" fill="#001D77"/>
<rect x="41.4558" y="26.5084" width="17.2379" height="11.2575" fill="#001D77"/>
<rect x="42.4266" y="27.4796" width="15.2955" height="9.31504" fill="#001D77"/>
<rect x="42.4266" y="27.4796" width="15.2955" height="9.31504" fill="#BED2E5"/>
<rect x="42.4266" y="27.4796" width="15.2955" height="9.31504" stroke="white" stroke-width="0.535232"/>
<path d="M48.843 36.7104L56.2307 27.5638H57.6379V36.7104H48.843Z" fill="white" fill-opacity="0.41"/>
<mask id="path-18-outside-2_1_862" maskUnits="userSpaceOnUse" x="48.8987" y="27.2119" width="2" height="10" fill="black">
<rect fill="white" x="48.8987" y="27.2119" width="2" height="10"/>
<path d="M49.8987 27.2119H50.2505V37.0622H49.8987V27.2119Z"/>
</mask>
<path d="M49.8987 27.2119H50.2505V37.0622H49.8987V27.2119Z" fill="#94AEC7"/>
<path d="M50.2505 27.2119H49.7152V37.0622H50.2505H50.7857V27.2119H50.2505ZM49.8987 37.0622H50.4339V27.2119H49.8987H49.3634V37.0622H49.8987Z" fill="#001D77" mask="url(#path-18-outside-2_1_862)"/>
<rect x="36.5305" y="12.4365" width="11.961" height="5.98052" fill="#001D77"/>
<rect x="36.5305" y="12.4365" width="11.961" height="5.98052" fill="#001D77"/>
<rect x="37.5013" y="13.4078" width="10.0186" height="4.03811" fill="#001D77"/>
<rect x="37.5013" y="13.4078" width="10.0186" height="4.03811" fill="#BED2E5"/>
<rect x="37.5013" y="13.4078" width="10.0186" height="4.03811" stroke="white" stroke-width="0.535232"/>
<path d="M38.6411 17.3616L46.0288 13.4919H47.436V17.3616H38.6411Z" fill="white" fill-opacity="0.41"/>
</g>
<defs>
<clipPath id="clip0_1_862">
<rect width="77" height="48" fill="white"/>
</clipPath>
</defs>
</svg>
