<svg width="16" height="16" viewBox="0 0 16 16" fill="none" xmlns="http://www.w3.org/2000/svg">
<rect x="0.5" y="0.5" width="15" height="15" rx="7.5" fill="#3366AA"/>
<rect x="0.5" y="0.5" width="15" height="15" rx="7.5" stroke="#3366AA"/>
<path d="M8.74415 9.64648H7.24415L7.09181 3.70508H8.89649L8.74415 9.64648ZM8.00587 12.2949C7.82618 12.2949 7.66017 12.25 7.50782 12.1602C7.35548 12.0703 7.23439 11.9512 7.14454 11.8027C7.0586 11.6504 7.01759 11.4863 7.02149 11.3105C7.01759 11.1348 7.0586 10.9727 7.14454 10.8242C7.23439 10.6758 7.35548 10.5586 7.50782 10.4727C7.66017 10.3828 7.82618 10.3379 8.00587 10.3379C8.17384 10.3379 8.33204 10.3828 8.48048 10.4727C8.63282 10.5586 8.75392 10.6758 8.84376 10.8242C8.9336 10.9727 8.97853 11.1348 8.97853 11.3105C8.97853 11.4863 8.9336 11.6504 8.84376 11.8027C8.75392 11.9512 8.63282 12.0703 8.48048 12.1602C8.33204 12.25 8.17384 12.2949 8.00587 12.2949Z" fill="white"/>
</svg>
