<svg width="16" height="16" viewBox="0 0 16 16" fill="none" xmlns="http://www.w3.org/2000/svg">
<path d="M11.95 8.45C13.2699 8.45 13.9299 8.45 14.3399 8.86005C14.75 9.2701 14.75 9.93007 14.75 11.25V11.95C14.75 13.2699 14.75 13.9299 14.3399 14.34C13.9299 14.75 13.2699 14.75 11.95 14.75H4.95C2.9701 14.75 1.98015 14.75 1.36508 14.1349C0.75 13.5199 0.75 12.5299 0.75 10.55L0.75 3.55C0.75 2.23007 0.75 1.57011 1.16005 1.16005C1.5701 0.750004 2.23007 0.750004 3.55 0.750004L4.25 0.750004C5.56993 0.750004 6.2299 0.750004 6.63995 1.16005C7.05 1.57011 7.05 2.23007 7.05 3.55" stroke="#ADC2DD" stroke-width="1.5" stroke-linecap="round" stroke-linejoin="round"/>
<path d="M9.84996 7.74997C9.84996 8.90977 8.90976 9.84997 7.74996 9.84997C6.59017 9.84997 5.64996 8.90977 5.64996 7.74997C5.64996 6.59018 6.59017 5.64997 7.74996 5.64997C8.90976 5.64997 9.84996 6.59018 9.84996 7.74997Z" stroke="#ADC2DD" stroke-width="1.5"/>
</svg>
