<svg width="14" height="16" viewBox="0 0 14 16" fill="none" xmlns="http://www.w3.org/2000/svg">
<g clip-path="url(#clip0_1_1085)">
<path d="M12.3016 3.54036L12.0174 8.14073M1.6955 3.54036L2.123 10.6286C2.23248 12.4439 2.28723 13.3516 2.74103 14.0043C2.96539 14.327 3.25444 14.5994 3.58978 14.8041C4.06443 15.0939 4.65181 15.1809 5.58438 15.207" stroke="#ADC2DD" stroke-width="1.5" stroke-linecap="round"/>
<path d="M12.659 10.2576L7.70953 15.2067M12.659 15.2071L7.70953 10.2579" stroke="#ADC2DD" stroke-width="1.5" stroke-linecap="round" stroke-linejoin="round"/>
<path d="M0.636353 3.5404H13.3636M9.86768 3.5404L9.38498 2.54465C9.06434 1.88321 8.90401 1.55249 8.62746 1.34622C8.56612 1.30047 8.50117 1.25978 8.43324 1.22453C8.127 1.06565 7.75947 1.06565 7.0244 1.06565C6.27088 1.06565 5.89412 1.06565 5.5828 1.23119C5.5138 1.26788 5.44796 1.31023 5.38595 1.35779C5.1062 1.57241 4.94993 1.91524 4.63739 2.60088L4.20913 3.5404" stroke="#ADC2DD" stroke-width="1.5" stroke-linecap="round"/>
</g>
<defs>
<clipPath id="clip0_1_1085">
<rect width="14" height="15.2727" fill="white" transform="translate(0 0.5)"/>
</clipPath>
</defs>
</svg>
