<svg width="254" height="30" viewBox="0 0 254 30" fill="none" xmlns="http://www.w3.org/2000/svg">
<path d="M12.1907 15.3504C11.763 11.4586 15.8449 8.33771 21.2998 8.37996C26.76 8.4222 31.5337 11.6117 31.9615 15.4983C32.3892 19.3954 28.3125 22.511 22.8523 22.4687C17.3921 22.4265 12.6184 19.2423 12.1907 15.3504ZM32.9806 16.5544C32.4895 11.7279 26.9924 7.77797 20.7084 7.72516C14.4191 7.67235 9.72463 11.5431 10.221 16.3696C10.7174 21.1961 16.2093 25.1513 22.4933 25.2041C28.7772 25.2516 33.477 21.3862 32.9806 16.5544Z" fill="#FBB584"/>
<path d="M23.4912 25.2991C20.3967 28.5362 15.4276 28.8055 12.3913 25.9011C9.35488 22.9968 9.40769 18.0224 12.5074 14.7906C15.6019 11.5589 20.5763 11.2896 23.6021 14.1886C26.6332 17.093 26.5857 22.0674 23.4859 25.2991M12.0216 14.685C8.42549 18.4449 8.3674 24.2272 11.8896 27.6015C15.4118 30.9758 21.1941 30.6643 24.7902 26.9045C28.3916 23.1446 28.4497 17.3623 24.9222 13.988C21.4001 10.6136 15.623 10.9252 12.0216 14.685Z" fill="#F89B6C"/>
<path d="M12.3544 2.58181C18.7915 0.168553 25.16 2.60821 26.5752 8.03145C27.9904 13.46 23.9191 19.8073 17.4819 22.2206C11.0448 24.6391 4.67636 22.1942 3.26115 16.7709C1.84594 11.3477 5.91732 4.99507 12.3544 2.58181ZM6.37145 4.65183C-0.308571 9.93776 -2.00894 17.6053 2.57467 21.7664C7.15299 25.9329 16.2832 25.0193 22.9633 19.7281C29.6433 14.4422 31.3437 6.77993 26.7601 2.6135C22.1764 -1.55294 13.0462 -0.639386 6.37145 4.65183Z" fill="#F37321"/>
<path d="M49.9152 9.00901V20.9591H48.0458V14.6593H40.9645V20.9591H39.0898V9.00901H40.9645V13.017H48.0458V9.00901H49.9152Z" fill="#101010"/>
<path d="M54.4037 20.9591C53.5324 20.9591 52.8301 20.7268 52.3284 20.2251C51.8003 19.7393 51.5469 19.1162 51.5469 18.3399V17.701C51.5469 16.9194 51.795 16.2963 52.3284 15.7999C52.8301 15.2983 53.5271 15.0501 54.4037 15.0501H59.2883V15.0025C59.2883 14.052 58.7602 13.5662 57.7147 13.5662H52.2861V11.9767H57.683C58.8078 11.9767 59.6632 12.2724 60.2547 12.8322C60.8461 13.3919 61.1576 14.1893 61.1576 15.2349V18.4033C61.1576 19.2165 60.8778 19.8555 60.3286 20.3202C59.8269 20.7585 59.1299 20.9591 58.2216 20.9591H54.3984H54.4037ZM57.8203 16.6395H54.8578C53.8915 16.6395 53.4215 17.0462 53.4215 17.8541V18.1498C53.4215 18.963 53.8915 19.3485 54.8578 19.3485H57.8203C58.7866 19.3485 59.2883 18.9578 59.2883 18.1498V17.8541C59.2883 17.0409 58.7866 16.6395 57.8203 16.6395Z" fill="#101010"/>
<path d="M66.6337 11.9767H68.4766C69.6331 11.9767 70.5519 12.32 71.2226 12.9906C71.8774 13.6771 72.2206 14.6118 72.2206 15.8158V20.9644H70.3513V15.9108C70.3513 15.161 70.1928 14.6171 69.913 14.2738C69.538 13.8355 69.0258 13.6032 68.3393 13.6032H66.7499C66.0792 13.6032 65.5617 13.8355 65.1921 14.2738C64.9122 14.6171 64.7855 15.161 64.7855 15.9108V20.9644H62.9161V15.8158C62.9161 14.6171 63.2435 13.6771 63.9141 12.9906C64.5689 12.32 65.4878 11.9767 66.6442 11.9767H66.6337Z" fill="#101010"/>
<path d="M80.8492 19.7604C80.1785 20.5736 79.3495 20.9591 78.3673 20.9591H77.2108C76.1652 20.9591 75.3414 20.6317 74.7289 19.9769C74.1375 19.3696 73.8576 18.4931 73.8576 17.3736V11.9767H75.7164V17.3894C75.7164 18.0442 75.8589 18.53 76.1388 18.8257C76.4504 19.169 76.8728 19.3432 77.4009 19.3432H78.2141C78.7422 19.3432 79.1646 19.169 79.492 18.8257C79.7719 18.53 79.9303 18.0442 79.9303 17.3894V11.9767H81.7733V17.3894C81.7733 18.0442 81.9159 18.53 82.1957 18.8257C82.5073 19.169 82.9297 19.3432 83.4578 19.3432H84.271C84.7991 19.3432 85.2215 19.169 85.5489 18.8257C85.8288 18.53 85.9872 18.0442 85.9872 17.3894V11.9767H87.846V17.3736C87.846 18.4983 87.5345 19.3696 86.943 19.9769C86.3199 20.6317 85.4909 20.9591 84.4453 20.9591H83.3047C82.3383 20.9591 81.5092 20.5684 80.8544 19.7604H80.8492Z" fill="#101010"/>
<path d="M93.3273 13.5979C92.6567 13.5979 92.1392 13.8303 91.7695 14.2686C91.4897 14.6118 91.3629 15.1557 91.3629 15.9056V20.9592H89.4936V8.97735H91.3629V12.5207C91.891 12.1616 92.5194 11.9768 93.2217 11.9768H95.0647C96.2211 11.9768 97.14 12.32 97.8106 12.9906C98.4654 13.6771 98.8086 14.6118 98.8086 15.8158V20.9644H96.934V15.9108C96.934 15.161 96.7756 14.6171 96.4957 14.2738C96.1208 13.8356 95.6086 13.6032 94.9221 13.6032H93.3326L93.3273 13.5979Z" fill="#101010"/>
<path d="M103.202 20.9591C102.331 20.9591 101.629 20.7268 101.127 20.2251C100.599 19.7393 100.345 19.1162 100.345 18.3399V17.701C100.345 16.9194 100.594 16.2963 101.127 15.7999C101.629 15.2983 102.326 15.0501 103.202 15.0501H108.087V15.0025C108.087 14.052 107.559 13.5662 106.513 13.5662H101.085V11.9767H106.481C107.606 11.9767 108.462 12.2724 109.053 12.8322C109.645 13.3919 109.956 14.1893 109.956 15.2349V18.4033C109.956 19.2165 109.676 19.8555 109.127 20.3202C108.625 20.7585 107.928 20.9591 107.02 20.9591H103.197H103.202ZM106.619 16.6395H103.656C102.69 16.6395 102.22 17.0462 102.22 17.8541V18.1498C102.22 18.963 102.69 19.3485 103.656 19.3485H106.619C107.585 19.3485 108.087 18.9578 108.087 18.1498V17.8541C108.087 17.0409 107.585 16.6395 106.619 16.6395Z" fill="#101010"/>
<path d="M117.761 19.4039H116.029V17.7669H117.576C118.347 17.7564 118.886 17.5451 119.198 17.128C119.446 16.7847 119.583 16.2355 119.604 15.4751V7.45381H121.511V15.6019C121.511 16.9115 121.199 17.8725 120.576 18.4745C119.953 19.0976 119.013 19.4092 117.767 19.4092L117.761 19.4039Z" fill="#101010"/>
<path d="M125.989 19.404C125.117 19.404 124.42 19.1611 123.913 18.67C123.39 18.1789 123.132 17.5505 123.132 16.7795V16.1405C123.132 15.359 123.39 14.7253 123.913 14.2342C124.42 13.7326 125.117 13.4844 125.989 13.4844H130.873V13.4368C130.873 12.481 130.345 12.0005 129.3 12.0005H123.871V10.411H129.268C130.393 10.411 131.248 10.6962 131.845 11.2665C132.447 11.8157 132.748 12.6183 132.748 13.6692V16.8376C132.748 17.6508 132.473 18.2898 131.919 18.7597C131.417 19.1875 130.715 19.3987 129.812 19.3987H125.989V19.404ZM129.405 15.0791H126.437C125.482 15.0791 125.001 15.4857 125.001 16.299V16.5947C125.001 17.3973 125.482 17.7987 126.437 17.7987H129.405C130.382 17.7987 130.873 17.3973 130.873 16.5947V16.299C130.873 15.4857 130.382 15.0791 129.405 15.0791Z" fill="#101010"/>
<path d="M134.459 14.081C134.459 12.9035 134.776 12.0057 135.409 11.3826C136.043 10.7489 136.914 10.4268 138.028 10.4163H140.479C141.593 10.4268 142.464 10.7489 143.103 11.3826C143.747 12.0057 144.07 12.9087 144.07 14.081V15.7497C144.07 16.9167 143.747 17.8092 143.103 18.4323C142.469 19.066 141.598 19.3881 140.495 19.3987H136.328V22.4878H134.453V14.0758L134.459 14.081ZM136.333 14.1919V17.7828H140.357C141.012 17.7828 141.503 17.5821 141.825 17.1755C142.073 16.8323 142.2 16.3253 142.2 15.66V14.1919C142.2 13.516 142.073 13.0038 141.825 12.6605C141.503 12.2434 141.012 12.0374 140.357 12.0374H138.155C137.5 12.0374 137.015 12.2434 136.703 12.6605C136.455 13.0038 136.328 13.516 136.328 14.1919H136.333Z" fill="#101010"/>
<path d="M148.458 19.404C147.586 19.404 146.889 19.1611 146.382 18.67C145.86 18.1789 145.601 17.5505 145.601 16.7795V16.1405C145.601 15.359 145.86 14.7253 146.382 14.2342C146.889 13.7326 147.586 13.4844 148.458 13.4844H153.342V13.4368C153.342 12.481 152.814 12.0005 151.769 12.0005H146.34V10.411H151.737C152.862 10.411 153.717 10.6962 154.314 11.2665C154.916 11.8157 155.217 12.6183 155.217 13.6692V16.8376C155.217 17.6508 154.942 18.2898 154.388 18.7597C153.886 19.1875 153.184 19.3987 152.281 19.3987H148.458V19.404ZM151.874 15.0791H148.907C147.951 15.0791 147.47 15.4857 147.47 16.299V16.5947C147.47 17.3973 147.951 17.7987 148.907 17.7987H151.874C152.851 17.7987 153.342 17.3973 153.342 16.5947V16.299C153.342 15.4857 152.851 15.0791 151.874 15.0791Z" fill="#101010"/>
<path d="M160.693 10.4163H162.536C163.703 10.4163 164.617 10.7542 165.282 11.4302C165.947 12.1061 166.28 13.046 166.28 14.2553V19.4039H164.411V14.3504C164.411 13.6005 164.263 13.0566 163.972 12.7134C163.608 12.2645 163.08 12.0427 162.399 12.0427H160.804C160.139 12.0427 159.621 12.2645 159.246 12.7134C158.977 13.0566 158.84 13.6005 158.84 14.3504V19.4039H156.97V14.2553C156.97 13.0513 157.303 12.1061 157.968 11.4302C158.634 10.7542 159.542 10.4163 160.698 10.4163H160.693Z" fill="#101010"/>
<path d="M175.492 19.9708V11.1748H178C178.656 11.1748 179.232 11.2588 179.728 11.4268C180.224 11.5868 180.608 11.8548 180.88 12.2308C181.152 12.6068 181.288 13.1148 181.288 13.7548C181.288 14.3708 181.152 14.8788 180.88 15.2788C180.608 15.6788 180.228 15.9788 179.74 16.1788C179.252 16.3708 178.688 16.4668 178.048 16.4668H176.596V19.9708H175.492ZM176.596 15.5668H177.904C178.672 15.5668 179.244 15.4228 179.62 15.1348C179.996 14.8468 180.184 14.3868 180.184 13.7548C180.184 13.1148 179.988 12.6748 179.596 12.4348C179.212 12.1948 178.632 12.0748 177.856 12.0748H176.596V15.5668ZM184.694 19.9708L181.886 11.1748H183.05L184.478 15.9388C184.63 16.4508 184.766 16.9348 184.886 17.3908C185.014 17.8388 185.162 18.3228 185.33 18.8428H185.378C185.546 18.3228 185.69 17.8388 185.81 17.3908C185.938 16.9348 186.078 16.4508 186.23 15.9388L187.646 11.1748H188.774L185.978 19.9708H184.694ZM195.108 20.1268C194.484 20.1268 193.908 20.0108 193.38 19.7788C192.86 19.5468 192.412 19.2308 192.036 18.8308L192.696 18.0628C193.008 18.3908 193.376 18.6548 193.8 18.8548C194.224 19.0548 194.664 19.1548 195.12 19.1548C195.704 19.1548 196.156 19.0228 196.476 18.7588C196.804 18.4948 196.968 18.1508 196.968 17.7268C196.968 17.4148 196.9 17.1668 196.764 16.9828C196.636 16.7988 196.46 16.6468 196.236 16.5268C196.02 16.3988 195.772 16.2748 195.492 16.1548L194.232 15.6028C193.96 15.4828 193.684 15.3308 193.404 15.1468C193.132 14.9628 192.904 14.7228 192.72 14.4268C192.536 14.1308 192.444 13.7708 192.444 13.3468C192.444 12.8908 192.564 12.4908 192.804 12.1468C193.044 11.7948 193.372 11.5188 193.788 11.3188C194.204 11.1188 194.68 11.0188 195.216 11.0188C195.744 11.0188 196.228 11.1188 196.668 11.3188C197.116 11.5188 197.492 11.7788 197.796 12.0988L197.22 12.8068C196.948 12.5588 196.648 12.3628 196.32 12.2188C196 12.0668 195.632 11.9908 195.216 11.9908C194.72 11.9908 194.32 12.1068 194.016 12.3388C193.72 12.5628 193.572 12.8708 193.572 13.2628C193.572 13.5508 193.644 13.7868 193.788 13.9708C193.94 14.1548 194.128 14.3028 194.352 14.4148C194.576 14.5268 194.804 14.6348 195.036 14.7388L196.284 15.2788C196.62 15.4228 196.924 15.5948 197.196 15.7948C197.476 15.9948 197.696 16.2428 197.856 16.5388C198.016 16.8348 198.096 17.1988 198.096 17.6308C198.096 18.0948 197.976 18.5188 197.736 18.9028C197.496 19.2788 197.152 19.5788 196.704 19.8028C196.256 20.0188 195.724 20.1268 195.108 20.1268ZM199.712 19.9708V13.4548H200.816V19.9708H199.712ZM200.264 12.1108C200.048 12.1108 199.872 12.0468 199.736 11.9188C199.608 11.7828 199.544 11.6028 199.544 11.3788C199.544 11.1628 199.608 10.9908 199.736 10.8628C199.872 10.7348 200.048 10.6708 200.264 10.6708C200.48 10.6708 200.656 10.7348 200.792 10.8628C200.928 10.9908 200.996 11.1628 200.996 11.3788C200.996 11.6028 200.928 11.7828 200.792 11.9188C200.656 12.0468 200.48 12.1108 200.264 12.1108ZM203.017 19.9708V13.4548H203.917L204.025 14.4028H204.049C204.337 14.0908 204.649 13.8268 204.985 13.6108C205.329 13.3948 205.693 13.2868 206.077 13.2868C206.581 13.2868 206.973 13.3988 207.253 13.6228C207.533 13.8468 207.741 14.1508 207.877 14.5348C208.221 14.1668 208.565 13.8668 208.909 13.6348C209.261 13.4028 209.637 13.2868 210.037 13.2868C210.701 13.2868 211.193 13.5068 211.513 13.9468C211.841 14.3788 212.005 15.0108 212.005 15.8428V19.9708H210.913V15.9868C210.913 15.3708 210.813 14.9268 210.613 14.6548C210.421 14.3828 210.117 14.2468 209.701 14.2468C209.453 14.2468 209.193 14.3308 208.921 14.4988C208.657 14.6588 208.369 14.9068 208.057 15.2428V19.9708H206.965V15.9868C206.965 15.3708 206.865 14.9268 206.665 14.6548C206.473 14.3828 206.169 14.2468 205.753 14.2468C205.505 14.2468 205.245 14.3308 204.973 14.4988C204.701 14.6588 204.417 14.9068 204.121 15.2428V19.9708H203.017ZM216.034 20.1268C215.346 20.1268 214.838 19.9108 214.51 19.4788C214.19 19.0468 214.03 18.4148 214.03 17.5828V13.4548H215.134V17.4508C215.134 18.0508 215.23 18.4908 215.422 18.7708C215.614 19.0428 215.926 19.1788 216.358 19.1788C216.694 19.1788 216.994 19.0908 217.258 18.9148C217.522 18.7388 217.81 18.4588 218.122 18.0748V13.4548H219.214V19.9708H218.302L218.218 18.9508H218.182C217.878 19.3028 217.554 19.5868 217.21 19.8028C216.874 20.0188 216.482 20.1268 216.034 20.1268ZM222.567 20.1268C222.295 20.1268 222.075 20.0708 221.907 19.9588C221.739 19.8468 221.615 19.6828 221.535 19.4668C221.455 19.2428 221.415 18.9788 221.415 18.6748V10.4188H222.519V18.7468C222.519 18.9148 222.547 19.0348 222.603 19.1068C222.667 19.1788 222.739 19.2148 222.819 19.2148C222.851 19.2148 222.883 19.2148 222.915 19.2148C222.947 19.2068 222.991 19.1988 223.047 19.1908L223.203 20.0308C223.123 20.0548 223.035 20.0748 222.939 20.0908C222.843 20.1148 222.719 20.1268 222.567 20.1268ZM226.325 20.1268C225.965 20.1268 225.641 20.0548 225.353 19.9108C225.065 19.7668 224.837 19.5588 224.669 19.2868C224.509 19.0068 224.429 18.6708 224.429 18.2788C224.429 17.5668 224.745 17.0228 225.377 16.6468C226.017 16.2628 227.033 15.9948 228.425 15.8428C228.425 15.5628 228.385 15.2988 228.305 15.0508C228.233 14.7948 228.101 14.5908 227.909 14.4388C227.717 14.2788 227.441 14.1988 227.081 14.1988C226.705 14.1988 226.349 14.2748 226.013 14.4268C225.685 14.5708 225.389 14.7268 225.125 14.8948L224.705 14.1388C224.905 14.0108 225.137 13.8828 225.401 13.7548C225.665 13.6188 225.953 13.5068 226.265 13.4188C226.577 13.3308 226.909 13.2868 227.261 13.2868C227.789 13.2868 228.217 13.3988 228.545 13.6228C228.881 13.8468 229.125 14.1588 229.277 14.5588C229.437 14.9508 229.517 15.4188 229.517 15.9628V19.9708H228.617L228.521 19.1908H228.485C228.181 19.4468 227.845 19.6668 227.477 19.8508C227.117 20.0348 226.733 20.1268 226.325 20.1268ZM226.637 19.2388C226.949 19.2388 227.245 19.1668 227.525 19.0228C227.813 18.8788 228.113 18.6668 228.425 18.3868V16.5748C227.697 16.6548 227.117 16.7708 226.685 16.9228C226.253 17.0668 225.945 17.2468 225.761 17.4628C225.577 17.6708 225.485 17.9188 225.485 18.2068C225.485 18.5828 225.597 18.8508 225.821 19.0108C226.045 19.1628 226.317 19.2388 226.637 19.2388ZM233.416 20.1268C232.96 20.1268 232.596 20.0388 232.324 19.8628C232.052 19.6788 231.856 19.4228 231.736 19.0948C231.624 18.7668 231.568 18.3868 231.568 17.9548V14.3428H230.596V13.5148L231.628 13.4548L231.748 11.6188H232.66V13.4548H234.436V14.3428H232.66V17.9908C232.66 18.3828 232.732 18.6908 232.876 18.9148C233.028 19.1308 233.292 19.2388 233.668 19.2388C233.788 19.2388 233.916 19.2228 234.052 19.1908C234.188 19.1508 234.308 19.1068 234.412 19.0588L234.628 19.8868C234.444 19.9508 234.248 20.0068 234.04 20.0548C233.832 20.1028 233.624 20.1268 233.416 20.1268ZM235.9 19.9708V13.4548H237.004V19.9708H235.9ZM236.452 12.1108C236.236 12.1108 236.06 12.0468 235.924 11.9188C235.796 11.7828 235.732 11.6028 235.732 11.3788C235.732 11.1628 235.796 10.9908 235.924 10.8628C236.06 10.7348 236.236 10.6708 236.452 10.6708C236.668 10.6708 236.844 10.7348 236.98 10.8628C237.116 10.9908 237.184 11.1628 237.184 11.3788C237.184 11.6028 237.116 11.7828 236.98 11.9188C236.844 12.0468 236.668 12.1108 236.452 12.1108ZM241.736 20.1268C241.208 20.1268 240.712 19.9948 240.248 19.7308C239.784 19.4588 239.412 19.0708 239.132 18.5668C238.86 18.0548 238.724 17.4388 238.724 16.7188C238.724 15.9908 238.86 15.3748 239.132 14.8708C239.412 14.3588 239.784 13.9668 240.248 13.6948C240.712 13.4228 241.208 13.2868 241.736 13.2868C242.136 13.2868 242.516 13.3628 242.876 13.5148C243.244 13.6668 243.568 13.8908 243.848 14.1868C244.128 14.4828 244.348 14.8428 244.508 15.2668C244.668 15.6908 244.748 16.1748 244.748 16.7188C244.748 17.4388 244.608 18.0548 244.328 18.5668C244.048 19.0708 243.68 19.4588 243.224 19.7308C242.768 19.9948 242.272 20.1268 241.736 20.1268ZM241.736 19.2148C242.112 19.2148 242.44 19.1108 242.72 18.9028C243.008 18.6948 243.232 18.4028 243.392 18.0268C243.552 17.6508 243.632 17.2148 243.632 16.7188C243.632 16.2148 243.552 15.7748 243.392 15.3988C243.232 15.0228 243.008 14.7308 242.72 14.5228C242.44 14.3148 242.112 14.2108 241.736 14.2108C241.36 14.2108 241.028 14.3148 240.74 14.5228C240.46 14.7308 240.24 15.0228 240.08 15.3988C239.928 15.7748 239.852 16.2148 239.852 16.7188C239.852 17.2148 239.928 17.6508 240.08 18.0268C240.24 18.4028 240.46 18.6948 240.74 18.9028C241.028 19.1108 241.36 19.2148 241.736 19.2148ZM246.482 19.9708V13.4548H247.382L247.49 14.4028H247.514C247.826 14.0908 248.154 13.8268 248.498 13.6108C248.85 13.3948 249.25 13.2868 249.698 13.2868C250.386 13.2868 250.89 13.5068 251.21 13.9468C251.53 14.3788 251.69 15.0108 251.69 15.8428V19.9708H250.598V15.9868C250.598 15.3708 250.498 14.9268 250.298 14.6548C250.106 14.3828 249.794 14.2468 249.362 14.2468C249.026 14.2468 248.726 14.3308 248.462 14.4988C248.198 14.6668 247.906 14.9148 247.586 15.2428V19.9708H246.482Z" fill="#101010"/>
</svg>
