<svg width="43" height="61" viewBox="0 0 43 61" fill="none" xmlns="http://www.w3.org/2000/svg">
<path d="M19.7423 0.0377251C29.8823 -0.5816 39.0765 6.49075 41.3803 16.3765C43.301 24.6187 40.8545 28.9274 36.7158 35.5724L21.584 59.8772L20.9613 60.9359L4.19977 33.8029C3.33752 32.4384 2.40402 31.0827 1.71402 29.6215C-1.63773 22.5235 0.158771 13.253 5.08227 7.3621C8.98777 2.68888 13.855 0.566925 19.7423 0.0377251Z" fill="url(#paint0_linear_439_84)"/>
<path d="M20.0725 12.6189C21.8618 12.3036 24.092 12.9309 25.5808 13.9226C32.279 18.3841 30.0105 28.1314 22.1638 29.5956C10.2733 30.5004 9.33029 14.0819 20.0725 12.6189Z" fill="#FEFEFE"/>
<defs>
<linearGradient id="paint0_linear_439_84" x1="21.0228" y1="0" x2="21.0228" y2="60.9359" gradientUnits="userSpaceOnUse">
<stop stop-color="#F78488"/>
<stop offset="1" stop-color="#DD5155"/>
</linearGradient>
</defs>
</svg>
